<?xml version="1.0" encoding="utf-8"?>
<!-- Generator: Adobe Illustrator 16.0.0, SVG Export Plug-In . SVG Version: 6.00 Build 0)  -->
<!DOCTYPE svg PUBLIC "-//W3C//DTD SVG 1.1//EN" "http://www.w3.org/Graphics/SVG/1.1/DTD/svg11.dtd">
<svg version="1.1" id="Layer_1" xmlns="http://www.w3.org/2000/svg" xmlns:xlink="http://www.w3.org/1999/xlink" x="0px" y="0px"
	 width="1190.55px" height="841.89px" viewBox="0 0 1190.55 841.89" enable-background="new 0 0 1190.55 841.89"
	 xml:space="preserve">
<g>
	<g>
		<path fill="none" stroke="#000000" stroke-width="10" stroke-miterlimit="10" d="M442.794,643.844
			c-11.83-11.834-30.457-36.102-34.639-36.32c-12.572-0.657-66.734,42.361-108.36,42.361c-59.998,0-113.795-40.916-113.847-103.945
			c-0.04-48.697,31.43-86.01,72.612-108.375c0-0.659,0-0.986,0-1.646c-17.012-22.833-30.772-48.362-30.798-77.543
			c-0.046-52.371,42.465-91.317,94.035-91.293c44.998,0.021,81.968,32.624,81.952,78.656c-0.017,49.605-41.481,78.388-81.402,98.965
			c0,0.659,0,0.986,0,1.647c29.901,34.618,84.89,103.829,90.202,103.433c7.975-0.596,29.562-70.888,35.754-108.375
			c14.667,0,29.334,0,44.001,0c-8.667,48.166-53.77,122.607-53.365,136.963c0.281,9.95,40.771,43.583,61.052,65.473
			C480.925,643.844,461.859,643.844,442.794,643.844z M384.498,580.021c0.042-16.976-88.668-114.322-104.504-116.609
			c-10.829-1.563-47.835,42.695-47.826,75.371c0.012,42.391,34.853,75.973,75.879,74.779
			C336.729,612.729,384.478,588.315,384.498,580.021z M271.739,353.981c0.019,25.289,20.651,65.237,28.056,66.557
			c10.848,1.933,61.681-36.654,61.617-72.597c-0.044-24.953-16.409-47.889-42.92-47.851
			C288.885,300.134,271.719,326.482,271.739,353.981z"/>
	</g>
</g>
<g>
	<g>
		<path fill="#C1C1C0" d="M443.105,643.827c-11.832-11.831-30.483-36.088-34.651-36.303c-12.526-0.646-66.805,42.354-108.35,42.353
			c-60.022-0.002-113.815-40.881-113.851-103.951c-0.027-48.73,31.409-85.962,72.601-108.35c0-0.66,0-0.99,0-1.65
			c-17.014-22.841-30.768-48.365-30.803-77.549c-0.063-52.386,42.467-91.333,94.052-91.301c45.027,0.027,81.949,32.602,81.95,78.65
			c0.001,49.628-41.5,78.372-81.4,99c0,0.66,0,0.99,0,1.65c29.896,34.611,84.894,103.8,90.202,103.402
			c7.973-0.597,29.558-70.863,35.75-108.353c14.667,0,29.333,0,44,0c-8.663,48.127-53.743,122.595-53.351,136.951
			c0.272,9.952,40.743,43.594,61.051,65.45C481.238,643.827,462.171,643.827,443.105,643.827z M384.804,580.028
			c0.036-17.007-88.73-114.341-104.501-116.603c-10.809-1.55-47.854,42.601-47.851,75.353c0.005,42.425,34.892,75.98,75.901,74.801
			C336.986,612.755,384.786,588.34,384.804,580.028z M272.053,353.976c0.02,25.288,20.642,65.229,28.051,66.552
			c10.848,1.938,61.673-36.67,61.601-72.601c-0.05-24.923-16.405-47.896-42.902-47.852
			C289.203,300.125,272.031,326.485,272.053,353.976z"/>
	</g>
</g>
<rect x="530" y="251.998" fill="none" width="638.572" height="515.715"/>
<text transform="matrix(-1 0 0 1 1015.6602 642.4941)" fill="none" stroke="#000000" stroke-width="10" stroke-miterlimit="10" font-family="'MyriadPro-Regular'" font-size="550">&amp;</text>
<rect x="651.432" y="251.999" fill="none" width="395.709" height="406.431"/>
<text transform="matrix(-1 0 0 1 1015.6602 642.4941)" fill="#C1C1C0" font-family="'MyriadPro-Regular'" font-size="550">&amp;</text>
</svg>
