<?xml version="1.0" encoding="utf-8"?>
<!-- Generator: Adobe Illustrator 16.0.0, SVG Export Plug-In . SVG Version: 6.00 Build 0)  -->
<!DOCTYPE svg PUBLIC "-//W3C//DTD SVG 1.1//EN" "http://www.w3.org/Graphics/SVG/1.1/DTD/svg11.dtd">
<svg version="1.1" id="Layer_1" xmlns="http://www.w3.org/2000/svg" xmlns:xlink="http://www.w3.org/1999/xlink" x="0px" y="0px"
	 width="1190.55px" height="841.89px" viewBox="0 0 1190.55 841.89" enable-background="new 0 0 1190.55 841.89"
	 xml:space="preserve">
<line fill="none" stroke="#000000" stroke-miterlimit="10" x1="271.337" y1="409.331" x2="444.671" y2="601.998"/>
<line fill="none" stroke="#000000" stroke-miterlimit="10" x1="444.671" y1="601.998" x2="480.004" y2="601.998"/>
<line fill="none" stroke="#000000" stroke-miterlimit="10" x1="480.004" y1="601.998" x2="296.004" y2="394.664"/>
<line fill="none" stroke="#000000" stroke-miterlimit="10" x1="296.004" y1="394.664" x2="271.337" y2="409.331"/>
<path fill="none" stroke="#000000" stroke-miterlimit="10" d="M205.667,484.663c-11.679,52.252,17.167,111.764,58.667,121.038"/>
<path fill="none" stroke="#000000" stroke-miterlimit="10" d="M228.148,487.816c-9.479,42.408,14.541,90.844,48.852,98.512"/>
<path fill="none" stroke="#000000" stroke-miterlimit="10" d="M205.667,484.663c0-24.727,45.049-72.136,68.546-72.136"/>
<path fill="none" stroke="#000000" stroke-miterlimit="10" d="M228.148,487.816c0-21.412,37.856-62.466,57.601-62.466"/>
<path fill="none" stroke="#000000" stroke-miterlimit="10" d="M411.396,565.011c0,15.764-59.629,45.989-90.729,45.989"/>
<path fill="none" stroke="#000000" stroke-miterlimit="10" d="M396.956,549.279c0,14.319-51.2,41.773-77.903,41.773"/>
<path fill="none" stroke="#000000" stroke-miterlimit="10" d="M277,586.328c0,1.607,28.699,4.689,43.667,4.689"/>
<path fill="none" stroke="#000000" stroke-miterlimit="10" d="M263.917,605.738c0,1.791,38.612,5.225,58.75,5.225"/>
<path fill="none" stroke="#000000" stroke-miterlimit="10" d="M429.564,545.162c18.596,0,54.251-81.127,54.251-123.438"/>
<path fill="none" stroke="#000000" stroke-miterlimit="10" d="M415.771,529.619c14.361,0,41.896-70.912,41.896-107.896"/>
<line fill="none" stroke="#000000" stroke-miterlimit="10" x1="457.667" y1="421.723" x2="483.815" y2="421.724"/>
<path fill="none" stroke="#000000" stroke-miterlimit="10" d="M264.04,272.609c6.33-8.807,16.007-16.302,29.422-21.823
	c31.216-12.848,70.427-4.31,87.581,19.069"/>
<path fill="none" stroke="#000000" stroke-miterlimit="10" d="M276.235,405.961c-43.195-33.555-48.627-93.307-12.136-133.459"/>
<path fill="none" stroke="#000000" stroke-miterlimit="10" d="M296.004,396.349c-39.151-45.238-29.473-99.966-16.17-116.142"/>
<path fill="none" stroke="#000000" stroke-miterlimit="10" d="M280.212,280.258c4.166-5.779,10.535-10.696,19.364-14.319
	c20.544-8.43,46.35-2.828,57.64,12.512"/>
<path fill="none" stroke="#000000" stroke-miterlimit="10" d="M299.744,399.444C414,347.349,357.349,278.797,357.349,278.797"/>
<path fill="none" stroke="#000000" stroke-miterlimit="10" d="M312.79,413.579c12.373-7.583,135.792-78.664,66.373-146.843"/>
<line fill="none" stroke="#000000" stroke-miterlimit="10" x1="919.529" y1="405.331" x2="746.196" y2="597.998"/>
<line fill="none" stroke="#000000" stroke-miterlimit="10" x1="746.196" y1="597.998" x2="710.863" y2="597.998"/>
<line fill="none" stroke="#000000" stroke-miterlimit="10" x1="710.863" y1="597.998" x2="894.863" y2="390.664"/>
<line fill="none" stroke="#000000" stroke-miterlimit="10" x1="894.863" y1="390.664" x2="919.529" y2="405.331"/>
<path fill="none" stroke="#000000" stroke-miterlimit="10" d="M985.2,480.663c11.679,52.252-17.167,111.764-58.667,121.038"/>
<path fill="none" stroke="#000000" stroke-miterlimit="10" d="M962.719,483.816c9.479,42.408-14.541,90.844-48.852,98.512"/>
<path fill="none" stroke="#000000" stroke-miterlimit="10" d="M985.2,480.663c0-24.727-45.05-72.136-68.546-72.136"/>
<path fill="none" stroke="#000000" stroke-miterlimit="10" d="M962.719,483.816c0-21.412-37.855-62.466-57.602-62.466"/>
<path fill="none" stroke="#000000" stroke-miterlimit="10" d="M779.472,561.011c0,15.764,59.63,45.989,90.729,45.989"/>
<path fill="none" stroke="#000000" stroke-miterlimit="10" d="M793.912,545.279c0,14.319,51.199,41.773,77.902,41.773"/>
<path fill="none" stroke="#000000" stroke-miterlimit="10" d="M913.867,582.328c0,1.607-28.698,4.689-43.666,4.689"/>
<path fill="none" stroke="#000000" stroke-miterlimit="10" d="M926.951,601.738c0,1.791-38.613,5.225-58.751,5.225"/>
<path fill="none" stroke="#000000" stroke-miterlimit="10" d="M761.303,541.162c-18.596,0-54.251-81.127-54.251-123.438"/>
<path fill="none" stroke="#000000" stroke-miterlimit="10" d="M775.097,525.619c-14.36,0-41.896-70.912-41.896-107.896"/>
<line fill="none" stroke="#000000" stroke-miterlimit="10" x1="733.201" y1="417.723" x2="707.052" y2="417.724"/>
<path fill="none" stroke="#000000" stroke-miterlimit="10" d="M926.827,268.609c-6.33-8.807-16.007-16.302-29.423-21.823
	c-31.216-12.848-70.427-4.31-87.58,19.069"/>
<path fill="none" stroke="#000000" stroke-miterlimit="10" d="M914.632,401.961c43.194-33.555,48.627-93.307,12.136-133.459"/>
<path fill="none" stroke="#000000" stroke-miterlimit="10" d="M894.863,392.349c39.151-45.238,29.473-99.966,16.17-116.142"/>
<path fill="none" stroke="#000000" stroke-miterlimit="10" d="M910.654,276.258c-4.166-5.779-10.534-10.696-19.363-14.319
	c-20.545-8.43-46.35-2.828-57.64,12.512"/>
<path fill="none" stroke="#000000" stroke-miterlimit="10" d="M891.123,395.444c-114.256-52.095-57.604-120.647-57.604-120.647"/>
<path fill="none" stroke="#000000" stroke-miterlimit="10" d="M878.077,409.579c-12.372-7.583-135.792-78.664-66.373-146.843"/>
</svg>
